<svg width="56" height="40" viewBox="0 0 56 40" fill="none" xmlns="http://www.w3.org/2000/svg">
<g clip-path="url(#clip0_791_2)">
<path d="M24.9547 0.00391267C24.1062 0.00529999 23.2558 0.231324 22.5251 0.735756C20.9163 1.84767 20.0212 5.27471 18.9406 7.71402C17.7506 10.3976 16.7065 13.1021 15.5469 15.0721C12.4105 11.5134 10.2708 3.62639 6.49284 0.735756C5.27426 -0.195585 2.60282 -0.169059 1.39968 0.735756C-1.85477 3.18572 1.41039 7.51718 2.7193 9.78979C5.59235 14.7725 8.77715 20.108 11.2081 24.6914C9.62781 28.8585 1.64718 40.6341 12.3404 39.9693C14.9285 38.2968 16.0243 34.8166 17.4319 31.6679C20.3098 25.225 22.755 19.6589 25.7316 12.9962C26.9688 10.2266 29.9491 6.13468 29.3162 2.99877C28.9615 1.25084 26.9644 0.000638572 24.9547 0.00391267ZM50.8266 2.56009C49.2803 2.57557 47.7208 3.29776 47.0462 4.69658C45.9301 5.96987 44.7349 7.16325 43.4616 8.27938C42.85 9.05035 42.1575 9.74068 41.3876 10.3534C40.4923 11.2848 39.766 12.3803 38.5574 12.9963V5.63996C38.5299 1.63852 31.0426 1.63852 31.0138 5.63996V26.5782C31.3409 28.0724 32.02 29.2148 33.6532 29.4049H35.9181C37.4706 29.1351 38.3536 28.1955 38.5574 26.5782V22.0503C38.5574 20.4808 38.2636 17.8311 39.3118 19.4092C40.8485 20.9129 43.0139 22.5308 44.9721 24.3117C46.8518 26.0257 48.6505 28.7921 50.629 29.2159C54.6802 30.0845 56.4673 26.1959 54.9679 23.37C53.3844 20.3827 48.8238 18.471 46.8573 15.8247C48.1826 12.7917 55.3874 10.9285 54.7789 5.63996C54.5391 3.55098 52.693 2.54139 50.8267 2.56009H50.8266Z" fill="black"/>
</g>
<defs>
<clipPath id="clip0_791_2">
<rect width="55.4939" height="40" fill="white"/>
</clipPath>
</defs>
</svg>
