<svg width="45" height="40" viewBox="0 0 45 40" fill="none" xmlns="http://www.w3.org/2000/svg">
<g clip-path="url(#clip0_792_12)">
<path d="M42.5544 25.1485L34.2691 20.3858C32.0151 19.0813 30.614 16.6848 30.614 14.1063V4.61126C30.614 2.60875 29.2433 0.940501 27.2631 0.515751C25.8317 0.21225 24.3698 0.03 22.8774 0H21.7805C20.3184 0.03025 18.826 0.2125 17.3943 0.515751C15.4144 0.940501 14.0436 2.609 14.0436 4.61101V14.106C14.0436 16.6848 12.6425 19.1115 10.3883 20.3858L2.10326 25.1483C0.428078 26.1193 -0.394202 28.1518 0.184356 29.9718C0.63663 31.3868 1.21777 32.7577 1.92053 34.0673L2.49934 35.0683C3.29636 36.3475 4.20337 37.5554 5.21015 38.6783C6.00206 39.5276 7.12931 39.9828 8.2563 39.9828C8.98722 39.9828 9.71838 39.8008 10.3579 39.4366L18.643 34.6741C19.7482 34.0333 21.0042 33.6957 22.283 33.6957C23.5618 33.6957 24.8178 34.0333 25.923 34.6741L34.2083 39.4366C35.8835 40.4073 38.0768 40.1041 39.3559 38.6783C40.3611 37.5861 41.3054 36.3728 42.0667 35.0683L42.6457 34.0673C43.3485 32.7577 43.9296 31.3868 44.3819 29.9718C45.0521 28.1518 44.2295 26.1193 42.5544 25.1485Z" fill="black"/>
</g>
<defs>
<clipPath id="clip0_792_12">
<rect width="44.6154" height="40" fill="black"/>
</clipPath>
</defs>
</svg>
