<svg width="50" height="40" viewBox="0 0 50 40" fill="none" xmlns="http://www.w3.org/2000/svg">
<g clip-path="url(#clip0_791_4)">
<path d="M32.8922 0.0201046V0.0112305H35.1995L36.0425 0.179838C36.6046 0.2893 37.1148 0.43275 37.5733 0.610232C38.0318 0.787714 38.4755 0.994791 38.9044 1.23142C39.3333 1.46805 39.7223 1.70916 40.0714 1.95466C40.4175 2.19723 40.7281 2.45458 41.0032 2.72671C41.2753 3.0018 41.6997 3.07279 42.2766 2.93968C42.8534 2.80657 43.4746 2.62168 44.1401 2.38505C44.8057 2.14842 45.4639 1.8822 46.1146 1.58638C46.7654 1.29057 47.1618 1.10274 47.3038 1.02288C47.4428 0.940082 47.5168 0.895712 47.5256 0.889766L47.5345 0.876455L47.5788 0.85427L47.6232 0.832085L47.6676 0.809899L47.7119 0.787714L47.7208 0.774403L47.7341 0.765529L47.7475 0.756655L47.7563 0.743344L47.8007 0.730033L47.8451 0.721158L47.8362 0.787714L47.8229 0.85427L47.8007 0.920826L47.7785 0.987381L47.7563 1.03175L47.7341 1.07612L47.7119 1.14268C47.6972 1.18705 47.6824 1.24619 47.6676 1.32016C47.6528 1.39413 47.5123 1.6899 47.2461 2.20757C46.9798 2.72524 46.6471 3.25028 46.2477 3.78272C45.8484 4.31517 45.4905 4.71743 45.174 4.9896C44.8545 5.2647 44.643 5.45695 44.5395 5.56642C44.4359 5.67881 44.3102 5.78232 44.1623 5.87701L43.9405 6.02343L43.8961 6.04562L43.8517 6.0678L43.8429 6.08111L43.8295 6.08999L43.8162 6.09886L43.8073 6.11217L43.763 6.13436L43.7186 6.15654L43.7098 6.16986L43.6964 6.17873L43.6831 6.1876L43.6742 6.20092L43.6654 6.21423L43.652 6.2231L43.6387 6.23197L43.6299 6.24529H43.8517L45.0941 5.97906C45.9224 5.80158 46.7136 5.58714 47.4679 5.33569L48.6659 4.93636L48.799 4.89199L48.8656 4.8698L48.91 4.84761L48.9543 4.82543L48.9987 4.80324L49.0431 4.78106L49.1318 4.76775L49.2205 4.75887V4.84761L49.1984 4.85649L49.1762 4.8698L49.1673 4.88311L49.154 4.89199L49.1407 4.90086L49.1318 4.91417L49.123 4.92748L49.1096 4.93636L49.0963 4.94523L49.0874 4.95854L49.0786 4.97185L49.0652 4.98073L49.0431 5.0251L49.0209 5.06947L49.0076 5.07834C49.0017 5.08722 48.8138 5.33862 48.4441 5.83264C48.0743 6.32959 47.8747 6.58099 47.8451 6.58694C47.8155 6.59581 47.7741 6.64018 47.7208 6.72005C47.6705 6.80285 47.357 7.1327 46.7802 7.70951C46.2034 8.28633 45.6384 8.79952 45.0853 9.24917C44.5292 9.70175 44.2481 10.2578 44.2422 10.9175C44.2333 11.5742 44.1993 12.3167 44.1401 13.1449C44.081 13.9732 43.9701 14.8679 43.8073 15.8293C43.6447 16.7907 43.3932 17.8778 43.053 19.0905C42.7129 20.3033 42.2987 21.4866 41.8107 22.6402C41.3226 23.7938 40.8123 24.8291 40.2799 25.7461C39.7474 26.6631 39.2594 27.4396 38.8157 28.0756C38.372 28.7115 37.9209 29.3105 37.4624 29.8726C37.0039 30.4346 36.4241 31.0677 35.7231 31.7716C35.0191 32.4727 34.6345 32.8572 34.5695 32.9253C34.5014 32.9904 34.2116 33.2329 33.6997 33.6529C33.191 34.0759 32.6437 34.4989 32.058 34.9219C31.4753 35.342 30.9399 35.6925 30.4518 35.9735C29.9638 36.2545 29.3751 36.5755 28.6859 36.9364C27.9996 37.3002 27.2572 37.6374 26.4585 37.948C25.6598 38.2586 24.8168 38.547 23.9294 38.8132C23.042 39.0795 22.1841 39.2865 21.3559 39.4344C20.5277 39.5823 19.5885 39.7081 18.5384 39.8116L16.9632 39.9669V39.989H14.0791V39.9669L13.702 39.9447C13.4506 39.9299 13.2435 39.9151 13.0808 39.9003C12.9181 39.8855 12.3043 39.8042 11.2394 39.6563C10.1745 39.5084 9.33888 39.3605 8.73247 39.2126C8.12611 39.0647 7.22388 38.7836 6.02587 38.3695C4.82787 37.9554 3.80291 37.5368 2.951 37.1138C2.10206 36.6938 1.56961 36.4276 1.35366 36.3152C1.14068 36.2057 0.901082 36.0697 0.634859 35.907L0.235524 35.6629L0.226695 35.6496L0.213339 35.6407L0.200028 35.6319L0.191154 35.6186L0.146783 35.5964L0.102413 35.5742L0.0935831 35.5609L0.0802276 35.552L0.0669165 35.5431L0.0580424 35.5298L0.0492126 35.5165L0.0358571 35.5076H0.0136719V35.4189L0.0580424 35.4278L0.102413 35.4411L0.30208 35.4633C0.435192 35.478 0.797565 35.5002 1.38916 35.5298C1.98079 35.5594 2.60935 35.5594 3.2749 35.5298C3.94046 35.5002 4.62084 35.4337 5.31595 35.3301C6.0111 35.2266 6.83195 35.0491 7.77851 34.7977C8.72511 34.5463 9.59477 34.2475 10.3875 33.9014C11.1773 33.5524 11.7393 33.2921 12.0736 33.1205C12.4049 32.9519 12.9107 32.6383 13.591 32.1798L14.6116 31.4921L14.6204 31.4788L14.6337 31.4699L14.6471 31.461L14.6559 31.4477L14.6648 31.4344L14.6781 31.4255L14.6915 31.4167L14.7003 31.4034L14.7447 31.39L14.789 31.3812L14.7979 31.3368L14.8112 31.2924L14.8246 31.2836L14.8334 31.2702L14.4785 31.2481C14.2418 31.2333 14.0126 31.2185 13.7907 31.2037C13.5689 31.1889 13.2213 31.1224 12.748 31.004C12.2747 30.8857 11.7645 30.7082 11.2172 30.4716C10.67 30.2349 10.1376 29.9539 9.61988 29.6285C9.10226 29.3032 8.72804 29.0325 8.49731 28.8166C8.26956 28.6035 7.97374 28.3019 7.6099 27.9114C7.24903 27.518 6.93547 27.1142 6.66925 26.7001C6.40302 26.286 6.14865 25.8082 5.90612 25.2669L5.5378 24.4594L5.51561 24.3928L5.49343 24.3263L5.48012 24.2819L5.47124 24.2375L5.5378 24.2464L5.60435 24.2597L6.09243 24.3263C6.41784 24.3706 6.9281 24.3854 7.62321 24.3706C8.31836 24.3559 8.79903 24.3263 9.06525 24.2819C9.33147 24.2375 9.49418 24.2079 9.55333 24.1932L9.64207 24.171L9.75299 24.1488L9.86392 24.1266L9.87279 24.1133L9.88611 24.1044L9.89946 24.0955L9.90829 24.0822L9.81955 24.06L9.73081 24.0379L9.64207 24.0157L9.55333 23.9935L9.46459 23.9713C9.40544 23.9565 9.30192 23.9269 9.15399 23.8826C9.00611 23.8382 8.60677 23.6755 7.95599 23.3945C7.30525 23.1135 6.78758 22.8399 6.40302 22.5736C6.01751 22.3066 5.64993 22.0146 5.30263 21.6995C4.95654 21.3801 4.57647 20.9689 4.16231 20.466C3.7482 19.9632 3.37846 19.379 3.05305 18.7134C2.72768 18.0478 2.48364 17.4119 2.32094 16.8055C2.15889 16.2026 2.05197 15.5863 2.00151 14.9641L1.9216 14.0323L1.96597 14.0412L2.01034 14.0545L2.05471 14.0767L2.09908 14.0989L2.14346 14.121L2.18783 14.1432L2.87557 14.4538C3.33409 14.6609 3.9035 14.8384 4.58383 14.9863C5.26421 15.1342 5.67091 15.2155 5.80402 15.2303L6.00369 15.2525H6.40302L6.39419 15.2392L6.38084 15.2303L6.36753 15.2214L6.35865 15.2081L6.34982 15.1948L6.33647 15.1859L6.32316 15.1771L6.31428 15.1638L6.26991 15.1416L6.22554 15.1194L6.21671 15.1061L6.20336 15.0972L6.19004 15.0883L6.18117 15.075L6.1368 15.0528L6.09243 15.0306L6.0836 15.0173C6.07473 15.0114 5.94751 14.9167 5.70197 14.7334C5.4594 14.547 5.20502 14.3059 4.9388 14.0101C4.67257 13.7143 4.40635 13.4037 4.14013 13.0783C3.87341 12.7522 3.63586 12.4033 3.4302 12.0356C3.22317 11.6659 3.00424 11.1955 2.77352 10.6247C2.54576 10.0567 2.37272 9.48433 2.25438 8.90752C2.13609 8.3307 2.06953 7.76129 2.05471 7.19925C2.03994 6.63721 2.05471 6.15654 2.09908 5.75721C2.14346 5.35788 2.2322 4.90676 2.36531 4.40391C2.49842 3.90106 2.69072 3.36861 2.94212 2.80657L3.31927 1.96353L3.34146 1.89698L3.36364 1.83042L3.377 1.82155L3.38583 1.80824L3.3947 1.79492L3.40801 1.78605L3.42137 1.79492L3.4302 1.80824L3.43907 1.82155L3.45238 1.83042L3.46574 1.8393L3.47457 1.85261L3.48344 1.86592L3.49676 1.87479L3.51894 1.91916L3.54113 1.96353L3.55448 1.97241L3.56331 1.98572L4.16231 2.65128C4.56165 3.09498 5.03495 3.59047 5.58217 4.13769C6.12943 4.68491 6.43262 4.96888 6.49176 4.9896C6.55095 5.01325 6.62488 5.08127 6.71362 5.1937C6.80236 5.30317 7.09818 5.56495 7.60103 5.97906C8.10392 6.39317 8.76207 6.87388 9.57551 7.4211C10.389 7.96833 11.2912 8.50818 12.2821 9.04063C13.2731 9.57307 14.338 10.0537 15.4768 10.4827C16.6156 10.9116 17.4143 11.1926 17.8728 11.3257C18.3313 11.4588 19.1152 11.6289 20.2244 11.836C21.3337 12.043 22.1694 12.1762 22.7314 12.2353C23.2934 12.2944 23.678 12.3285 23.885 12.3374L24.1956 12.3462L24.1868 12.2797L24.1734 12.2131L24.0847 11.6585C24.0255 11.2887 23.9959 10.7711 23.9959 10.1055C23.9959 9.43996 24.0477 8.82618 24.1512 8.26414C24.2548 7.7021 24.4101 7.1327 24.6171 6.55588C24.8242 5.97906 25.0268 5.5161 25.225 5.16708C25.4262 4.82099 25.6894 4.4261 26.0148 3.98239C26.3402 3.53869 26.7617 3.0802 27.2793 2.6069C27.797 2.1336 28.3886 1.71208 29.0542 1.34235C29.7197 0.972606 30.3335 0.691563 30.8955 0.499306C31.4576 0.307049 31.9309 0.181303 32.3154 0.122157C32.6999 0.0630108 32.8922 0.0289787 32.8922 0.0201046V0.0201046Z" fill="black" stroke="black" stroke-width="1.12646"/>
</g>
<defs>
<clipPath id="clip0_791_4">
<rect width="49.2368" height="40" fill="white"/>
</clipPath>
</defs>
</svg>
