<svg width="105" height="50" viewBox="0 0 105 50" fill="none" xmlns="http://www.w3.org/2000/svg">
<path d="M53.7051 23.873H56.9434C58.7754 23.873 59.6738 22.9395 59.6738 21.6934C59.6738 20.4824 58.8145 19.7715 57.9629 19.7285V19.6504C58.7441 19.4668 59.3613 18.9199 59.3613 17.9473C59.3613 16.7559 58.502 15.873 56.7676 15.873H53.7051V23.873ZM55.1543 22.6621V20.3184H56.752C57.6465 20.3184 58.2012 20.8652 58.2012 21.5801C58.2012 22.2168 57.7637 22.6621 56.7129 22.6621H55.1543ZM55.1543 19.2754V17.0684H56.6191C57.4707 17.0684 57.9121 17.5176 57.9121 18.1348C57.9121 18.8379 57.3418 19.2754 56.5879 19.2754H55.1543ZM68.083 19.873C68.083 17.2871 66.5049 15.7637 64.4072 15.7637C62.3057 15.7637 60.7314 17.2871 60.7314 19.873C60.7314 22.4551 62.3057 23.9824 64.4072 23.9824C66.5049 23.9824 68.083 22.459 68.083 19.873ZM66.626 19.873C66.626 21.6934 65.7119 22.6816 64.4072 22.6816C63.1064 22.6816 62.1885 21.6934 62.1885 19.873C62.1885 18.0527 63.1064 17.0645 64.4072 17.0645C65.7119 17.0645 66.626 18.0527 66.626 19.873ZM70.374 15.873H68.7139L71.21 19.873L68.6826 23.873H70.3545L72.1357 20.9629H72.1982L73.9795 23.873H75.6592L73.1553 19.873L75.6201 15.873H73.9678L72.1982 18.8027H72.1357L70.374 15.873ZM76.7578 23.873H78.207V20.4746H81.5312V19.2598H78.207V17.0879H81.8828V15.873H76.7578V23.873ZM84.6523 15.873H83.2031V23.873H84.6523V15.873ZM90.5693 18.0723H91.9639C91.9365 16.7207 90.7842 15.7637 89.0811 15.7637C87.4014 15.7637 86.1396 16.709 86.1436 18.123C86.1436 19.2715 86.96 19.9316 88.2764 20.2715L89.1865 20.5059C90.0498 20.7246 90.6201 20.9941 90.624 21.6152C90.6201 22.2988 89.9717 22.7559 89.0264 22.7559C88.1201 22.7559 87.417 22.3496 87.3584 21.5098H85.9326C85.9912 23.0996 87.1748 23.9941 89.0381 23.9941C90.9561 23.9941 92.0693 23.0371 92.0732 21.627C92.0693 20.2402 90.9248 19.6074 89.7217 19.3223L88.9717 19.1348C88.3154 18.9785 87.6045 18.7012 87.6123 18.0332C87.6162 17.4316 88.1553 16.9902 89.0615 16.9902C89.9248 16.9902 90.4951 17.3926 90.5693 18.0723ZM93.3652 23.873H94.8145V20.4746H98.5215V23.873H99.9746V15.873H98.5215V19.2598H94.8145V15.873H93.3652V23.873ZM58.0098 32.2168C57.7207 31.3652 57.0723 30.7949 55.8848 30.7949C54.6191 30.7949 53.6816 31.5137 53.6816 32.5293C53.6816 33.3574 54.1738 33.9121 55.2754 34.1699L56.2754 34.4043C56.8809 34.5449 57.166 34.834 57.166 35.248C57.166 35.7637 56.6191 36.1855 55.7598 36.1855C55.0059 36.1855 54.5332 35.8613 54.3691 35.2168L53.4941 35.4355C53.709 36.4551 54.5488 36.998 55.7754 36.998C57.1699 36.998 58.1191 36.2363 58.1191 35.2012C58.1191 34.3652 57.5957 33.8379 56.5254 33.5762L55.6348 33.3574C54.9238 33.1816 54.6035 32.9434 54.6035 32.4824C54.6035 31.9668 55.1504 31.5918 55.8848 31.5918C56.6895 31.5918 57.0215 32.0371 57.1816 32.4512L58.0098 32.2168ZM62.1162 30.873H60.835V29.4355H59.9131V30.873H59.0068V31.6543H59.9131V35.4043C59.9131 36.4512 60.7568 36.9512 61.5381 36.9512C61.8818 36.9512 62.1006 36.8887 62.2256 36.8418L62.0381 36.0137C61.96 36.0293 61.835 36.0605 61.6318 36.0605C61.2256 36.0605 60.835 35.9355 60.835 35.1543V31.6543H62.1162V30.873ZM67.2842 34.4199C67.2842 35.5449 66.4248 36.0605 65.7373 36.0605C64.9717 36.0605 64.4248 35.498 64.4248 34.623V30.873H63.5029V34.6855C63.5029 36.2168 64.3154 36.9512 65.4404 36.9512C66.3467 36.9512 66.9404 36.4668 67.2217 35.8574H67.2842V36.873H68.2061V30.873H67.2842V34.4199ZM72.1602 36.998C73.3164 36.998 73.707 36.2793 73.9102 35.9512H74.0195V36.873H74.9102V28.873H73.9883V31.8262H73.9102C73.707 31.5137 73.3477 30.7949 72.1758 30.7949C70.6602 30.7949 69.6133 31.998 69.6133 33.8887C69.6133 35.7949 70.6602 36.998 72.1602 36.998ZM72.2852 36.1699C71.1289 36.1699 70.5352 35.1543 70.5352 33.873C70.5352 32.6074 71.1133 31.623 72.2852 31.623C73.4102 31.623 74.0039 32.5293 74.0039 33.873C74.0039 35.2324 73.3945 36.1699 72.2852 36.1699ZM76.7266 36.873H77.6484V30.873H76.7266V36.873ZM77.1953 29.873C77.5547 29.873 77.8516 29.5918 77.8516 29.248C77.8516 28.9043 77.5547 28.623 77.1953 28.623C76.8359 28.623 76.5391 28.9043 76.5391 29.248C76.5391 29.5918 76.8359 29.873 77.1953 29.873ZM81.7744 36.998C83.3994 36.998 84.4932 35.7637 84.4932 33.9043C84.4932 32.0293 83.3994 30.7949 81.7744 30.7949C80.1494 30.7949 79.0557 32.0293 79.0557 33.9043C79.0557 35.7637 80.1494 36.998 81.7744 36.998ZM81.7744 36.1699C80.54 36.1699 79.9775 35.1074 79.9775 33.9043C79.9775 32.7012 80.54 31.623 81.7744 31.623C83.0088 31.623 83.5713 32.7012 83.5713 33.9043C83.5713 35.1074 83.0088 36.1699 81.7744 36.1699Z" fill="#333333"/>
<path fill-rule="evenodd" clip-rule="evenodd" d="M5.4174 15.6498L21.5003 6.29921L37.5829 15.6498V34.3506L21.5 43.7008V32.0545L19.1831 31.6144L6.48176 33.7316L14.6535 23.7133L15.4331 21.4727L5.4174 15.6498ZM33.7101 17.9014C34.3888 19.0851 33.9859 20.5988 32.8104 21.2822C31.6348 21.9657 30.1317 21.56 29.453 20.3762C28.7743 19.1924 29.1772 17.6788 30.3528 16.9953C31.5283 16.3118 33.0314 16.7176 33.7101 17.9014ZM21.5 25.0434V25L21.4632 24.9786L21.4814 25.011L21.5 25.0434ZM32.2502 6.25042L21.5 0L10.7502 6.25008L0 12.5002V25V37.4998L10.7502 43.7499L21.5 50L32.2502 43.7499L43 37.4998V25V12.5002L32.2502 6.25042Z" fill="#B2C6D3"/>
</svg>
